<svg width="16" height="17" viewBox="0 0 16 17" fill="none" xmlns="http://www.w3.org/2000/svg">
<g clip-path="url(#clip0_146_516)">
<path d="M8.77261 1.20387L10.5772 4.95812C10.7027 5.21923 10.9453 5.40016 11.226 5.44196L15.2614 6.04403C15.9683 6.14957 16.2503 7.04118 15.739 7.55278L12.819 10.475C12.6161 10.6782 12.5233 10.9712 12.5714 11.258L13.2606 15.3844C13.3814 16.1071 12.6424 16.6581 12.0103 16.3171L8.40115 14.3691C8.15017 14.2337 7.85013 14.2337 7.59915 14.3691L3.98997 16.3171C3.35784 16.6584 2.61892 16.1071 2.73974 15.3844L3.42893 11.258C3.47699 10.9712 3.38421 10.6782 3.18129 10.475L0.261306 7.55278C-0.249999 7.04084 0.0320197 6.14923 0.738903 6.04403L4.77428 5.44196C5.05497 5.40016 5.2976 5.21923 5.42309 4.95812L7.22768 1.20387C7.54341 0.5463 8.45655 0.5463 8.77261 1.20387Z" fill="#F9D4AB"/>
<path d="M3.98978 16.3171L7.59896 14.3691C7.72441 14.3014 7.86211 14.2676 7.99982 14.2676L7.99982 7.48913L7.99982 0.710693C7.69256 0.710701 7.38536 0.875095 7.2275 1.20387L5.42291 4.95812C5.29742 5.21923 5.05478 5.40016 4.7741 5.44196L0.73872 6.04403C0.0318366 6.14923 -0.250182 7.04084 0.261123 7.55278L3.18111 10.475C3.38403 10.6782 3.47681 10.9712 3.42875 11.258L2.73955 15.3844C2.61874 16.1071 3.35766 16.6584 3.98978 16.3171Z" fill="#FFA135"/>
</g>
<defs>
<clipPath id="clip0_146_516">
<rect width="16" height="16.4274" fill="white" transform="translate(0 0.352051)"/>
</clipPath>
</defs>
</svg>
