<svg width="68" height="49" viewBox="0 0 68 49" fill="none" xmlns="http://www.w3.org/2000/svg">
<path d="M45.3373 41.3094C44.4092 40.9051 43.759 39.9358 43.762 38.7995C43.7661 37.2912 44.9204 36.0595 46.3396 36.0487L64.1594 35.9118C65.5788 35.9004 66.7261 37.1149 66.7219 38.623C66.7178 40.1314 65.5635 41.3631 64.1442 41.3739L46.3245 41.5107C45.9744 41.5134 45.6409 41.4416 45.3373 41.3094Z" fill="#FFC619"/>
<path d="M38.8175 35.3096C38.6359 35.2305 38.4603 35.1275 38.2941 35.0002C37.1484 34.1221 36.899 32.4162 37.737 31.1898L55.2062 5.62192C56.0442 4.39543 57.6513 4.11283 58.7979 4.99107C59.9436 5.86912 60.193 7.57503 59.3549 8.80151L41.8858 34.3694C41.1694 35.418 39.8897 35.7766 38.8175 35.3096Z" fill="#FFC619"/>
<path d="M28.7026 30.9028C27.5423 30.3974 26.8869 29.0459 27.2147 27.7109L32.1209 7.72961C32.4802 6.26656 33.8846 5.37784 35.258 5.74467C36.6297 6.11035 37.4533 7.59499 37.094 9.05828L32.1879 29.0395C31.8285 30.5026 30.4241 31.3913 29.0507 31.0245C28.9304 30.9922 28.8141 30.9514 28.7026 30.9028Z" fill="#FFC619"/>
<path d="M17.5343 29.1973C16.9279 28.9331 16.4187 28.422 16.1505 27.7267L7.35738 4.93757C6.82075 3.54713 7.45115 1.94602 8.76533 1.36162C10.0793 0.777324 11.5797 1.43091 12.1163 2.82136L20.9094 25.6105C21.4461 27.0009 20.8157 28.6021 19.5015 29.1865C18.8442 29.4786 18.1407 29.4614 17.5343 29.1973Z" fill="#FFC619"/>
</svg>
