<svg width="16" height="17" viewBox="0 0 16 17" fill="none" xmlns="http://www.w3.org/2000/svg">
<path d="M8 8.85986C6.9 8.85986 5.95833 8.4682 5.175 7.68486C4.39167 6.90153 4 5.95986 4 4.85986C4 3.75986 4.39167 2.8182 5.175 2.03486C5.95833 1.25153 6.9 0.859863 8 0.859863C9.1 0.859863 10.0417 1.25153 10.825 2.03486C11.6083 2.8182 12 3.75986 12 4.85986C12 5.95986 11.6083 6.90153 10.825 7.68486C10.0417 8.4682 9.1 8.85986 8 8.85986ZM0 16.8599V14.0599C0 13.4932 0.145833 12.9724 0.4375 12.4974C0.729167 12.0224 1.11667 11.6599 1.6 11.4099C2.63333 10.8932 3.68333 10.5057 4.75 10.2474C5.81667 9.98903 6.9 9.85986 8 9.85986C9.1 9.85986 10.1833 9.98903 11.25 10.2474C12.3167 10.5057 13.3667 10.8932 14.4 11.4099C14.8833 11.6599 15.2708 12.0224 15.5625 12.4974C15.8542 12.9724 16 13.4932 16 14.0599V16.8599H0ZM2 14.8599H14V14.0599C14 13.8765 13.9542 13.7099 13.8625 13.5599C13.7708 13.4099 13.65 13.2932 13.5 13.2099C12.6 12.7599 11.6917 12.4224 10.775 12.1974C9.85833 11.9724 8.93333 11.8599 8 11.8599C7.06667 11.8599 6.14167 11.9724 5.225 12.1974C4.30833 12.4224 3.4 12.7599 2.5 13.2099C2.35 13.2932 2.22917 13.4099 2.1375 13.5599C2.04583 13.7099 2 13.8765 2 14.0599V14.8599ZM8 6.85986C8.55 6.85986 9.02083 6.66403 9.4125 6.27236C9.80417 5.8807 10 5.40986 10 4.85986C10 4.30986 9.80417 3.83903 9.4125 3.44736C9.02083 3.0557 8.55 2.85986 8 2.85986C7.45 2.85986 6.97917 3.0557 6.5875 3.44736C6.19583 3.83903 6 4.30986 6 4.85986C6 5.40986 6.19583 5.8807 6.5875 6.27236C6.97917 6.66403 7.45 6.85986 8 6.85986Z" fill="#201B11"/>
</svg>
