<svg width="208" height="80" viewBox="0 0 208 80" fill="none" xmlns="http://www.w3.org/2000/svg">
<g clip-path="url(#clip0_34_748)">
<path d="M180.103 12.4197C163.298 11.9439 154.23 18.6331 152.513 32.7144L143.211 37.9194C142.925 38.0811 142.687 38.3132 142.521 38.5923C142.356 38.8715 142.269 39.1879 142.269 39.5101C142.269 39.8322 142.356 40.1486 142.521 40.4278C142.687 40.7069 142.925 40.939 143.211 41.1007L152.491 46.2986C154.208 60.3799 163.312 67.0762 180.081 66.6004C199.349 67.1472 208.519 58.2354 207.956 39.5101C208.541 20.7847 199.378 11.8729 180.103 12.4197Z" fill="#0060F8"/>
<path d="M194.475 41.477H182.463V53.6056C182.473 53.9108 182.42 54.2148 182.309 54.5002C182.197 54.7856 182.028 55.0467 181.812 55.2685C181.596 55.4903 181.337 55.6683 181.05 55.7924C180.763 55.9165 180.454 55.9841 180.14 55.9915C179.498 55.9803 178.887 55.7233 178.44 55.2764C177.992 54.8296 177.744 54.2291 177.75 53.6056V41.477H165.796C165.482 41.4874 165.169 41.4371 164.875 41.3289C164.581 41.2207 164.312 41.0568 164.083 40.8467C163.855 40.6366 163.672 40.3846 163.544 40.1051C163.417 39.8257 163.348 39.5245 163.341 39.2189C163.361 38.6004 163.628 38.0139 164.087 37.5851C164.546 37.1563 165.16 36.9194 165.796 36.9253H177.75V25.3435C177.749 25.0383 177.81 24.736 177.93 24.4538C178.05 24.1717 178.226 23.9153 178.448 23.6995C178.67 23.4837 178.934 23.3127 179.224 23.1963C179.514 23.08 179.826 23.0206 180.14 23.0215C180.45 23.0223 180.757 23.0835 181.043 23.2013C181.329 23.3191 181.588 23.4912 181.804 23.7075C182.02 23.9238 182.19 24.1799 182.303 24.4609C182.417 24.7418 182.471 25.0419 182.463 25.3435V36.9253H194.475C194.79 36.9234 195.101 36.9822 195.392 37.0982C195.683 37.2142 195.947 37.3852 196.169 37.6012C196.391 37.8172 196.567 38.0739 196.687 38.3565C196.806 38.6391 196.867 38.9418 196.865 39.2473C196.861 39.5469 196.796 39.8428 196.673 40.1177C196.551 40.3926 196.373 40.6411 196.151 40.8486C195.928 41.0561 195.666 41.2186 195.378 41.3265C195.09 41.4343 194.783 41.4855 194.475 41.477Z" fill="white"/>
<path d="M23.6372 21.6795H2.06052C1.7801 21.6957 1.49922 21.6561 1.23515 21.563C0.971072 21.4699 0.729376 21.3253 0.524911 21.138C0.320447 20.9508 0.157532 20.725 0.0461771 20.4743C-0.0651775 20.2237 -0.12262 19.9535 -0.12262 19.6805C-0.12262 19.4075 -0.0651775 19.1374 0.0461771 18.8868C0.157532 18.6361 0.320447 18.4102 0.524911 18.223C0.729376 18.0358 0.971072 17.8912 1.23515 17.7981C1.49922 17.705 1.7801 17.6653 2.06052 17.6816H23.6372C24.1615 17.712 24.6541 17.9358 25.0143 18.3074C25.3745 18.6789 25.5751 19.1701 25.5751 19.6805C25.5751 20.191 25.3745 20.6822 25.0143 21.0537C24.6541 21.4253 24.1615 21.6491 23.6372 21.6795ZM23.4326 55.388C23.4076 57.6613 22.4587 59.8328 20.793 61.4291C19.1272 63.0253 16.8797 63.9168 14.5404 63.9092H11.815C9.47566 63.9168 7.2281 63.0253 5.56236 61.4291C3.89661 59.8328 2.94777 57.6613 2.92271 55.388V53.5559C2.94967 51.2832 3.89912 49.1127 5.56445 47.5169C7.22978 45.921 9.47623 45.0289 11.815 45.0347H14.5404C16.8791 45.0289 19.1256 45.921 20.7909 47.5169C22.4562 49.1127 23.4057 51.2832 23.4326 53.5559V55.388ZM21.0433 12.5192H5.24624C4.70036 12.5173 4.17738 12.3057 3.79138 11.9306C3.40538 11.5554 3.18768 11.0472 3.18575 10.5167C3.18859 10.2575 3.2443 10.0014 3.34967 9.76327C3.45504 9.52513 3.60797 9.30968 3.79961 9.12938C3.99124 8.94909 4.21778 8.80753 4.4661 8.7129C4.71441 8.61827 4.97958 8.57245 5.24624 8.5781H21.0433C21.31 8.57245 21.5752 8.61827 21.8235 8.7129C22.0718 8.80753 22.2983 8.94909 22.49 9.12938C22.6816 9.30968 22.8345 9.52513 22.9399 9.76327C23.0453 10.0014 23.101 10.2575 23.1038 10.5167C23.1019 11.0472 22.8842 11.5554 22.4982 11.9306C22.1122 12.3057 21.5892 12.5173 21.0433 12.5192ZM21.0433 30.712H5.24624C4.97462 30.728 4.70251 30.6898 4.44664 30.5998C4.19077 30.5098 3.95656 30.3698 3.75841 30.1886C3.56026 30.0073 3.40237 29.7886 3.29444 29.5458C3.18652 29.303 3.13084 29.0414 3.13084 28.7769C3.13084 28.5125 3.18652 28.2508 3.29444 28.0081C3.40237 27.7653 3.56026 27.5466 3.75841 27.3653C3.95656 27.184 4.19077 27.0441 4.44664 26.9541C4.70251 26.8641 4.97462 26.8259 5.24624 26.8419H21.0433C21.315 26.8259 21.5871 26.8641 21.8429 26.9541C22.0988 27.0441 22.333 27.184 22.5312 27.3653C22.7293 27.5466 22.8872 27.7653 22.9951 28.0081C23.1031 28.2508 23.1587 28.5125 23.1587 28.7769C23.1587 29.0414 23.1031 29.303 22.9951 29.5458C22.8872 29.7886 22.7293 30.0073 22.5312 30.1886C22.333 30.3698 22.0988 30.5098 21.8429 30.5998C21.5871 30.6898 21.315 30.728 21.0433 30.712ZM21.0433 39.6805H5.24624C4.97932 39.6871 4.71373 39.642 4.46497 39.5477C4.21621 39.4534 3.98929 39.3119 3.79745 39.1314C3.60561 38.9509 3.45271 38.7351 3.34768 38.4965C3.24266 38.258 3.18761 38.0014 3.18575 37.742C3.1896 37.2127 3.40815 36.7062 3.79394 36.3326C4.17974 35.959 4.70162 35.7484 5.24624 35.7466H21.0433C21.588 35.7484 22.1098 35.959 22.4956 36.3326C22.8814 36.7062 23.1 37.2127 23.1038 37.742C23.102 38.0014 23.0469 38.258 22.9419 38.4965C22.8369 38.7351 22.684 38.9509 22.4921 39.1314C22.3003 39.3119 22.0734 39.4534 21.8246 39.5477C21.5759 39.642 21.3103 39.6871 21.0433 39.6805ZM19.2532 53.5559C19.2417 52.3466 18.7408 51.1903 17.8588 50.3372C16.9768 49.484 15.7847 49.0026 14.5404 48.9971H11.815C10.5656 49.0027 9.36909 49.488 8.4863 50.3473C7.60352 51.2065 7.10599 52.3701 7.10214 53.5843V55.388C7.10791 56.601 7.60629 57.7627 8.48887 58.6204C9.37145 59.4782 10.5668 59.9625 11.815 59.9681H14.5404C15.7885 59.9625 16.9839 59.4782 17.8665 58.6204C18.7491 57.7627 19.2474 56.601 19.2532 55.388V53.5559ZM58.6217 37.8769H27.8824C27.3752 37.847 26.8988 37.6301 26.5506 37.2705C26.2023 36.9109 26.0084 36.4357 26.0084 35.9419C26.0084 35.448 26.2023 34.9728 26.5506 34.6132C26.8988 34.2536 27.3752 34.0367 27.8824 34.0068H34.3415L36.7966 24.9033H31.47C31.1984 24.9193 30.9263 24.8811 30.6704 24.7911C30.4145 24.7011 30.1803 24.5612 29.9822 24.3799C29.784 24.1987 29.6261 23.9799 29.5182 23.7372C29.4103 23.4944 29.3546 23.2328 29.3546 22.9683C29.3546 22.7038 29.4103 22.4422 29.5182 22.1994C29.6261 21.9567 29.784 21.7379 29.9822 21.5567C30.1803 21.3754 30.4145 21.2355 30.6704 21.1455C30.9263 21.0555 31.1984 21.0173 31.47 21.0333H37.7757L39.7704 13.2932H30.2059C29.6987 13.2633 29.2224 13.0464 28.8741 12.6868C28.5258 12.3272 28.3319 11.852 28.3319 11.3581C28.3319 10.8643 28.5258 10.3891 28.8741 10.0295C29.2224 9.66987 29.6987 9.453 30.2059 9.42312H56.1667C56.6739 9.453 57.1502 9.66987 57.4985 10.0295C57.8468 10.3891 58.0407 10.8643 58.0407 11.3581C58.0407 11.852 57.8468 12.3272 57.4985 12.6868C57.1502 13.0464 56.6739 13.2633 56.1667 13.2932H43.9499L41.9551 21.0333H46.0761C50.8547 21.0333 54.6396 24.3281 54.6396 29.0361V34.0068H58.6217C58.8933 33.9908 59.1655 34.029 59.4213 34.119C59.6772 34.209 59.9114 34.349 60.1096 34.5302C60.3077 34.7115 60.4656 34.9302 60.5735 35.173C60.6815 35.4157 60.7371 35.6774 60.7371 35.9419C60.7371 36.2063 60.6815 36.468 60.5735 36.7107C60.4656 36.9535 60.3077 37.1722 60.1096 37.3535C59.9114 37.5347 59.6772 37.6747 59.4213 37.7647C59.1655 37.8547 58.8933 37.8929 58.6217 37.8769ZM50.5259 34.0068C50.6574 32.6505 50.5259 30.0019 50.5259 29.0361C50.4601 26.4513 48.6627 24.9033 46.0761 24.9033H40.9614L38.6379 34.0068H50.5259Z" fill="#0060F8"/>
<path d="M67.6601 57.9937V50.0193C67.6649 48.6656 67.8441 47.3177 68.1935 46.0072C66.2804 44.8896 64.0907 44.298 61.8585 44.2959H40.6253C37.3309 44.2959 34.1715 45.5677 31.842 47.8316C29.5125 50.0955 28.2039 53.166 28.2039 56.3676V64.335C28.2039 67.5366 29.5125 70.6071 31.842 72.871C34.1715 75.1348 37.3309 76.4067 40.6253 76.4067H61.8585C64.143 76.4033 66.3823 75.7877 68.3302 74.6276C70.278 73.4675 71.8589 71.8079 72.899 69.8311C71.2423 68.3088 69.923 66.4736 69.0221 64.438C68.1213 62.4025 67.6578 60.2096 67.6601 57.9937Z" fill="#FFC619"/>
<path d="M58.5852 67.7152C58.2202 68.0067 57.7643 68.1695 57.2919 68.1768C56.9887 68.1816 56.6915 68.0947 56.4415 67.928C56.1914 67.7613 56.0009 67.5232 55.8963 67.2466L54.8661 65.1163H47.6032L46.573 67.2466C46.4592 67.5301 46.2573 67.7721 45.9954 67.9388C45.7334 68.1055 45.4245 68.1887 45.1116 68.1768C44.6511 68.1764 44.2067 68.0122 43.8622 67.7152C43.6784 67.5779 43.5308 67.4 43.4317 67.1963C43.3326 66.9925 43.2848 66.7688 43.2923 66.5436C43.2953 66.2764 43.3628 66.0137 43.4895 65.7767L49.5322 54.2659C49.6875 53.9723 49.9283 53.7296 50.2245 53.568C50.5207 53.4064 50.8593 53.333 51.1981 53.357C51.5385 53.3356 51.878 53.41 52.176 53.5712C52.474 53.7324 52.718 53.9736 52.8787 54.2659L58.9213 65.7767C59.071 66.0081 59.1612 66.2711 59.1843 66.5436C59.1838 66.7705 59.1295 66.9942 59.0255 67.1974C58.9216 67.4006 58.771 67.5778 58.5852 67.7152ZM51.2347 57.6531L48.955 62.354H53.5728L51.2347 57.6531Z" fill="white"/>
<path d="M80.4541 4.06178H120.02C120.565 4.05992 121.086 3.84932 121.472 3.47572C121.858 3.10212 122.077 2.59568 122.08 2.06639C122.079 1.52978 121.863 1.01466 121.479 0.629304C121.095 0.243948 120.572 0.018375 120.02 0H80.4541C79.8954 0.0160585 79.3642 0.238922 78.969 0.62302C78.5737 1.00712 78.3444 1.52344 78.3279 2.06639C78.3468 2.60204 78.5792 3.10957 78.9759 3.48186C79.3726 3.85416 79.9027 4.0621 80.4541 4.06178Z" fill="#0060F8"/>
<path d="M80.8487 22.4535H119.158C119.42 22.4573 119.681 22.4098 119.925 22.3136C120.168 22.2175 120.389 22.0747 120.575 21.8938C120.76 21.713 120.906 21.4977 121.004 21.2608C121.102 21.0239 121.15 20.7702 121.145 20.5149C121.151 20.2567 121.104 19.9999 121.007 19.7595C120.91 19.519 120.765 19.2996 120.58 19.114C120.395 18.9284 120.174 18.7803 119.93 18.6783C119.686 18.5763 119.424 18.5223 119.158 18.5195H80.8487C80.5826 18.5223 80.3197 18.5762 80.0752 18.6782C79.8307 18.7801 79.6093 18.9281 79.4239 19.1136C79.2385 19.2991 79.0926 19.5184 78.9948 19.7589C78.897 19.9994 78.8491 20.2564 78.854 20.5149C78.849 20.7708 78.8972 21.0251 78.9957 21.2624C79.0942 21.4998 79.241 21.7155 79.4272 21.8964C79.6134 22.0774 79.8353 22.22 80.0795 22.3157C80.3238 22.4115 80.5854 22.4583 80.8487 22.4535Z" fill="#0060F8"/>
<path d="M80.8487 31.2445H119.158C119.424 31.2418 119.687 31.1876 119.932 31.0851C120.177 30.9826 120.398 30.8338 120.583 30.6475C120.768 30.4612 120.913 30.2409 121.009 29.9997C121.106 29.7584 121.152 29.5008 121.145 29.242C121.15 28.9867 121.102 28.7331 121.004 28.4962C120.906 28.2593 120.76 28.044 120.575 27.8631C120.389 27.6822 120.168 27.5394 119.925 27.4433C119.681 27.3471 119.42 27.2996 119.158 27.3034H80.8487C80.5857 27.2996 80.3245 27.3471 80.0807 27.4432C79.8369 27.5393 79.6155 27.6819 79.4295 27.8627C79.2434 28.0435 79.0967 28.2587 78.9978 28.4956C78.899 28.7326 78.8501 28.9864 78.854 29.242C78.8482 29.5012 78.8953 29.7589 78.9927 30.0002C79.0901 30.2415 79.2357 30.4617 79.4212 30.6479C79.6068 30.8342 79.8285 30.9828 80.0735 31.0852C80.3185 31.1876 80.582 31.2417 80.8487 31.2445Z" fill="#0060F8"/>
<path d="M127.721 9.42285H72.8844C72.3269 9.43882 71.7967 9.66069 71.4016 10.0433C71.0066 10.4259 70.7765 10.9404 70.7581 11.4821C70.7733 12.0203 71.0041 12.5314 71.4012 12.9067C71.7983 13.282 72.3304 13.4919 72.8844 13.4917H127.721C128.266 13.488 128.788 13.2758 129.174 12.9011C129.56 12.5264 129.778 12.0192 129.782 11.4892C129.782 10.9521 129.567 10.436 129.182 10.0502C128.798 9.66449 128.274 9.43946 127.721 9.42285Z" fill="#0060F8"/>
<path d="M88.1627 57.2412C89.8132 57.2412 91.1511 55.9409 91.1511 54.3369C91.1511 52.7329 89.8132 51.4326 88.1627 51.4326C86.5122 51.4326 85.1743 52.7329 85.1743 54.3369C85.1743 55.9409 86.5122 57.2412 88.1627 57.2412Z" fill="#0060F8"/>
<path d="M100.27 57.2412C101.92 57.2412 103.258 55.9409 103.258 54.3369C103.258 52.7329 101.92 51.4326 100.27 51.4326C98.6195 51.4326 97.2815 52.7329 97.2815 54.3369C97.2815 55.9409 98.6195 57.2412 100.27 57.2412Z" fill="#0060F8"/>
<path d="M112.377 51.4326C111.786 51.4326 111.208 51.6029 110.717 51.9221C110.225 52.2412 109.842 52.6948 109.616 53.2255C109.39 53.7562 109.331 54.3402 109.446 54.9035C109.561 55.4669 109.846 55.9844 110.264 56.3906C110.682 56.7968 111.214 57.0734 111.794 57.1854C112.374 57.2975 112.975 57.24 113.521 57.0202C114.067 56.8003 114.534 56.4281 114.862 55.9505C115.19 55.4729 115.366 54.9113 115.366 54.3369C115.366 53.5667 115.051 52.8279 114.49 52.2833C113.93 51.7386 113.17 51.4326 112.377 51.4326Z" fill="#0060F8"/>
<path d="M116.045 37.9551H84.4948C81.2004 37.9551 78.041 39.2269 75.7115 41.4908C73.382 43.7547 72.0734 46.8252 72.0734 50.0268V57.9941C72.0734 61.1958 73.382 64.2662 75.7115 66.5301C78.041 68.794 81.2004 70.0659 84.4948 70.0659H95.4548L92.7952 77.2947C92.6826 77.6005 92.6474 77.9282 92.6926 78.25C92.7378 78.5718 92.862 78.8783 93.0548 79.1436C93.2475 79.409 93.5032 79.6253 93.8001 79.7744C94.097 79.9235 94.4265 80.0009 94.7607 80.0002C95.1817 79.9991 95.5922 79.8727 95.9371 79.638L110.251 70.0517H116.016C119.31 70.0517 122.47 68.7798 124.799 66.5159C127.129 64.252 128.437 61.1816 128.437 57.9799V50.0197C128.435 46.8242 127.13 43.7599 124.807 41.4983C122.484 39.2368 119.333 37.9626 116.045 37.9551ZM124.272 57.9941C124.271 60.1142 123.403 62.1468 121.861 63.6459C120.318 65.145 118.227 65.988 116.045 65.9899H109.016L102.973 70.0303L98.9109 72.7571L99.9119 70.0303L101.373 65.9899H84.4948C82.3133 65.988 80.2218 65.145 78.6793 63.6459C77.1368 62.1468 76.2693 60.1142 76.2674 57.9941V50.0197C76.2693 47.899 77.1365 45.8656 78.6788 44.3654C80.2211 42.8652 82.3127 42.0206 84.4948 42.0169H116.045C118.227 42.0206 120.319 42.8652 121.861 44.3654C123.403 45.8656 124.271 47.899 124.272 50.0197V57.9941Z" fill="#0060F8"/>
<path d="M194.475 41.477H182.463V53.6056C182.473 53.9108 182.42 54.2148 182.309 54.5002C182.197 54.7856 182.028 55.0467 181.812 55.2685C181.596 55.4903 181.337 55.6683 181.05 55.7924C180.763 55.9165 180.454 55.9841 180.14 55.9915C179.498 55.9803 178.887 55.7233 178.44 55.2764C177.992 54.8296 177.744 54.2291 177.75 53.6056V41.477H165.796C165.482 41.4874 165.169 41.4371 164.875 41.3289C164.581 41.2207 164.312 41.0568 164.083 40.8467C163.855 40.6366 163.672 40.3846 163.544 40.1051C163.417 39.8257 163.348 39.5245 163.341 39.2189C163.361 38.6004 163.628 38.0139 164.087 37.5851C164.546 37.1563 165.16 36.9194 165.796 36.9253H177.75V25.3435C177.749 25.0383 177.81 24.736 177.93 24.4538C178.05 24.1717 178.226 23.9153 178.448 23.6995C178.67 23.4837 178.934 23.3127 179.224 23.1963C179.514 23.08 179.826 23.0206 180.14 23.0215C180.45 23.0223 180.757 23.0835 181.043 23.2013C181.329 23.3191 181.588 23.4912 181.804 23.7075C182.02 23.9238 182.19 24.1799 182.303 24.4609C182.417 24.7418 182.471 25.0419 182.463 25.3435V36.9253H194.475C194.79 36.9234 195.101 36.9822 195.392 37.0982C195.683 37.2142 195.947 37.3852 196.169 37.6012C196.391 37.8172 196.567 38.0739 196.687 38.3565C196.806 38.6391 196.867 38.9418 196.865 39.2473C196.861 39.5469 196.796 39.8428 196.673 40.1177C196.551 40.3926 196.373 40.6411 196.151 40.8486C195.928 41.0561 195.666 41.2186 195.378 41.3265C195.09 41.4343 194.783 41.4855 194.475 41.477Z" fill="white"/>
</g>
<defs>
<clipPath id="clip0_34_748">
<rect width="208" height="80" fill="white"/>
</clipPath>
</defs>
</svg>
